<svg width="32" height="32" viewBox="0 0 32 32" fill="none" xmlns="http://www.w3.org/2000/svg">
<circle cx="16" cy="16" r="15" stroke="black" stroke-width="2"/>
<path d="M27.7523 15.9275L16.5973 5.23725C16.2671 4.92092 15.7324 4.92092 15.4022 5.23725L4.24757 15.9275C4.08903 16.0794 4 16.2855 4 16.5C4 16.7145 4.08903 16.9205 4.24757 17.0727L15.4022 27.7625C15.5673 27.921 15.7831 27.9999 15.9996 27.9999C16.2155 27.9999 16.4322 27.921 16.5972 27.7625L27.7522 17.0727C27.9106 16.9205 28 16.7145 28 16.5C28 16.2855 27.9106 16.0794 27.7523 15.9275ZM19.9294 15.6401L17.7459 17.7321C17.5812 17.8906 17.3652 17.9695 17.1484 17.9695C16.9326 17.9695 16.7162 17.8906 16.5511 17.7321C16.221 17.4157 16.221 16.9034 16.5511 16.587L17.2983 15.8715H13.5117V20.1907C13.5117 20.638 13.1335 21.0009 12.6665 21.0009C12.1999 21.0009 11.8215 20.638 11.8215 20.1907V15.0615C11.8215 14.6145 12.1999 14.2517 12.6665 14.2517H17.286L16.377 13.3811C16.047 13.0647 16.047 12.552 16.377 12.2356C16.7071 11.9192 17.2421 11.9192 17.5722 12.2356L19.9291 14.4947C20.2595 14.8111 20.2595 15.3237 19.9294 15.6401Z" fill="black"/>
</svg>
