<svg width="32" height="32" viewBox="0 0 32 32" fill="none" xmlns="http://www.w3.org/2000/svg">
<g clip-path="url(#clip0)">
<path fill-rule="evenodd" clip-rule="evenodd" d="M16.0001 0C24.8364 0 32.0003 7.1635 32.0003 16.0001C32.0003 24.8368 24.8364 32.0003 16.0001 32.0003C7.16381 32.0003 0 24.8368 0 16.0001C0 7.1635 7.16375 0 16.0001 0V0ZM9.5335 5.84869H9.20906C8.85406 5.88469 8.52937 6.03887 8.27637 6.292L7.09575 7.47281C6.25631 8.31238 5.81831 9.43819 5.84512 10.6237C5.87219 11.8207 6.35269 12.9846 7.09556 13.9139C8.71519 15.9403 10.3652 17.9582 12.2014 19.7944C14.0375 21.6306 16.0555 23.2806 18.0818 24.9002C19.0144 25.6457 20.1822 26.1291 21.3841 26.1508C21.4116 26.1513 21.4392 26.1517 21.4668 26.1517C22.6309 26.1517 23.7184 25.7046 24.5419 24.8813L25.704 23.7194C26.3074 23.1161 26.3073 22.1328 25.7039 21.5295L23.295 19.1208C23.0018 18.8275 22.6145 18.6693 22.2 18.6693C21.7856 18.6693 21.3982 18.8277 21.1051 19.1209L19.8364 20.3897L19.4443 20.2657C19.3486 20.2354 19.2583 20.1883 19.1766 20.1301C18.3571 19.5459 17.5305 18.9619 16.7334 18.3476C16.1537 17.901 15.5954 17.4361 15.0775 16.9182C14.5596 16.4003 14.0948 15.8421 13.6482 15.2624C13.034 14.4653 12.45 13.6388 11.8659 12.8194C11.8098 12.7406 11.7641 12.6539 11.7334 12.5621L11.6009 12.1651L12.8748 10.8907C13.168 10.5974 13.3266 10.2104 13.3266 9.79581C13.3266 9.38119 13.1682 8.99412 12.8749 8.70081L10.4664 6.29206C10.2133 6.039 9.88837 5.88469 9.5335 5.84869V5.84869Z" fill="black"/>
</g>
<defs>
<clipPath id="clip0">
<rect width="32" height="32" fill="white"/>
</clipPath>
</defs>
</svg>
