<svg width="32" height="32" viewBox="0 0 32 32" fill="none" xmlns="http://www.w3.org/2000/svg">
<path d="M23.3179 7.11731L23.3488 7.35489L22.9928 7.42859L22.9454 7.93467H23.3718L23.9391 7.88005L24.232 7.53191L23.9207 7.41082L23.7502 7.21471L23.4942 6.80011L23.3718 6.21375L22.8908 6.3118L22.7559 6.51844V6.75141L22.9875 6.91001L23.3179 7.11731Z" fill="black"/>
<path d="M22.9077 7.31212L22.9334 6.99492L22.6511 6.87317L22.2562 6.96464L21.9634 7.43453V7.73923H22.3049L22.9077 7.31212Z" fill="black"/>
<path d="M14.7803 8.6593L14.6935 8.88305H14.2729V9.10022H14.373C14.373 9.10022 14.3789 9.14629 14.3875 9.20683L14.6454 9.18512L14.8067 9.08509L14.8488 8.88305L15.0574 8.86528L15.1397 8.69549L14.9482 8.65601L14.7803 8.6593Z" fill="black"/>
<path d="M13.6961 9.05338L13.6797 9.26595L13.9844 9.24028L14.016 9.02706L13.833 8.88293L13.6961 9.05338Z" fill="black"/>
<path d="M31.9961 15.8345C31.9914 15.3666 31.9678 14.902 31.9237 14.4446C31.7756 12.9198 31.411 11.4581 30.8648 10.088C30.824 9.98597 30.7865 9.88265 30.743 9.78196C30.0152 8.06235 28.9932 6.49674 27.7421 5.14567C27.6598 5.05748 27.5763 4.97061 27.4927 4.88506C27.2564 4.63959 27.0136 4.40004 26.7622 4.17036C23.9179 1.58075 20.1404 0 15.9997 0C11.824 0 8.01958 1.60905 5.16738 4.23815C4.5027 4.85084 3.89199 5.51947 3.33787 6.23548C1.24775 8.93894 0 12.3255 0 15.9997C0 24.8228 7.17787 32 16.0003 32C22.2062 32 27.594 28.4463 30.2462 23.2684C30.8134 22.1614 31.255 20.9815 31.5525 19.7449C31.6282 19.431 31.6933 19.1158 31.7499 18.7966C31.9112 17.8878 31.9993 16.9533 31.9993 15.9997C32 15.9444 31.9967 15.8898 31.9961 15.8345ZM28.9846 9.43975L29.0774 9.33577C29.1991 9.57203 29.313 9.81224 29.4216 10.0557L29.2702 10.0498L28.9846 10.0893V9.43975V9.43975ZM26.6727 6.6481L26.6753 5.93341C26.9267 6.19994 27.1689 6.47437 27.4006 6.75866L27.1123 7.18774L26.1048 7.17853L26.0416 6.9686L26.6727 6.6481ZM7.37201 4.8719V4.84492H7.6925L7.72014 4.73501H8.24465V4.96403L8.09394 5.16541H7.37135L7.37201 4.8719ZM7.88401 5.58593C7.88401 5.58593 8.2045 5.53131 8.23214 5.53131C8.25978 5.53131 8.23214 5.85115 8.23214 5.85115L7.50955 5.89656L7.37201 5.73203L7.88401 5.58593ZM30.004 11.9372H28.8332L28.1199 11.4061L27.369 11.4792V11.9372H27.1314L26.8747 11.7543L25.5743 11.4246V10.5822L23.9265 10.7105L23.4158 10.985H22.7616L22.4411 10.9527L21.6468 11.3936V12.2235L20.0233 13.3949L20.1582 13.8951H20.4872L20.401 14.3715L20.1694 14.4564L20.1569 15.7016L21.5599 17.2994H22.1707L22.2075 17.202H23.3052L23.6218 16.9092H24.2443L24.5859 17.2514L25.5138 17.3475L25.3907 18.5814L26.4206 20.3997L25.8784 21.4362L25.9152 21.9245L26.3423 22.3503V23.5244L26.903 24.2785V25.2538H27.3874C24.6918 28.5634 20.5892 30.6831 15.999 30.6831C7.9031 30.6838 1.3162 24.0962 1.3162 15.9997C1.3162 13.9615 1.73475 12.0188 2.48827 10.2532V9.79513L3.01343 9.15743C3.19572 8.81324 3.39118 8.47761 3.59979 8.15054L3.62349 8.41707L3.01409 9.15743C2.82521 9.51412 2.64884 9.8787 2.48893 10.2532V11.0889L3.09898 11.3825V12.544L3.68403 13.5423L4.15984 13.6154L4.22104 13.2732L3.65968 12.4071L3.54978 11.5654H3.87883L4.01769 12.4315L4.82912 13.6154L4.61985 13.9977L5.13579 14.7868L6.41711 15.104V14.8967L6.92977 14.9697L6.88107 15.3357L7.28383 15.4094L7.90573 15.5791L8.78429 16.5801L9.90634 16.665L10.0162 17.5804L9.24825 18.1174L9.21205 18.9348L9.10215 19.4349L10.213 20.8255L10.2979 21.302C10.2979 21.302 10.7007 21.4112 10.75 21.4112C10.7987 21.4112 11.6529 22.0581 11.6529 22.0581V24.5714L11.9576 24.6569L11.7503 25.8165L12.263 26.5003L12.1682 27.6493L12.8454 28.8398L13.7148 29.5993L14.5887 29.6151L14.6743 29.334L14.032 28.7931L14.0688 28.5246L14.184 28.1955L14.2083 27.8599L13.774 27.8467L13.5548 27.5717L13.9155 27.2248L13.9642 26.9629L13.5614 26.8478L13.5851 26.6043L14.159 26.5174L15.0316 26.0982L15.3245 25.5612L16.2399 24.3898L16.0319 23.4737L16.3129 22.986L17.1546 23.0117L17.7213 22.5629L17.9042 20.7952L18.5327 19.997L18.6426 19.4843L18.0694 19.3007L17.691 18.6801L16.3978 18.6669L15.3725 18.276L15.3238 17.5449L14.9816 16.9467L14.0543 16.9329L13.5186 16.0918L13.0428 15.8595L13.0185 16.1162L12.1524 16.1675L11.8352 15.7259L10.9317 15.5423L10.1874 16.4024L9.01594 16.2037L8.93104 14.8835L8.07617 14.7374L8.41904 14.0899L8.32099 13.718L7.19761 14.4689L6.49082 14.3827L6.23877 13.8306L6.39276 13.2613L6.78235 12.5433L7.67934 12.0893L9.41145 12.0886L9.40685 12.617L10.0294 12.9066L9.98005 12.0037L10.4289 11.5522L11.3344 10.9573L11.3963 10.5388L12.2992 9.59901L13.2594 9.06727L13.1745 8.99751L13.8247 8.38548L14.0629 8.44866L14.1721 8.58554L14.4189 8.31177L14.4795 8.28479L14.209 8.24662L13.9346 8.15515V7.89191L14.08 7.77279H14.4005L14.5472 7.83729L14.6743 8.09394L14.8296 8.07025V8.04788L14.8743 8.06301L15.3245 7.99391L15.3883 7.77411L15.645 7.8386V8.07683L15.4067 8.2407H15.4074L15.4423 8.50196L16.2576 8.75336C16.2576 8.75336 16.2583 8.75665 16.2596 8.76323L16.4472 8.74743L16.4597 8.39404L15.8134 8.09987L15.7766 7.93008L16.3129 7.74713L16.3366 7.23381L15.7759 6.89226L15.7391 6.02686L14.9704 6.40461H14.6901L14.7638 5.74585L13.7174 5.49906L13.2844 5.82614V6.82382L12.5058 7.0706L12.1939 7.7208L11.8556 7.77542V6.94359L11.1238 6.84224L10.7579 6.60401L10.6105 6.06503L11.9195 5.299L12.5598 5.10421L12.6243 5.5346L12.981 5.51617L13.0086 5.29966L13.3818 5.24635L13.3883 5.17067L13.2278 5.10421L13.1909 4.87519L13.6496 4.83636L13.9267 4.54811L13.9418 4.52705L13.9451 4.52837L14.0293 4.4415L14.9934 4.31975L15.4199 4.68171L14.3018 5.27729L15.7246 5.61292L15.9089 5.13711H16.5308L16.7506 4.72251L16.311 4.61261V4.0881L14.9322 3.47739L13.9806 3.58729L13.4436 3.8683L13.4805 4.5514L12.9191 4.46585L12.8329 4.0881L13.3706 3.59979L12.3946 3.5511L12.1143 3.63599L11.9925 3.96504L12.3584 4.0269L12.2854 4.3928L11.6635 4.42966L11.5661 4.67315L10.6638 4.69816C10.6638 4.69816 10.6388 4.18616 10.6026 4.18616C10.5664 4.18616 11.3101 4.17366 11.3101 4.17366L11.8477 3.64849L11.5542 3.50174L11.164 3.8808L10.5164 3.84395L10.1261 3.30694H9.29629L8.43023 3.95385H9.2239L9.29629 4.18616L9.0903 4.37767L9.96886 4.40202L10.1031 4.71922L9.11399 4.68236L9.06595 4.43821L8.44405 4.30396L8.11434 4.12101L7.37398 4.12693C9.79776 2.36125 12.7783 1.3162 15.9997 1.3162C19.7127 1.3162 23.1052 2.70412 25.6934 4.98443L25.5191 5.29637L24.8419 5.56158L24.5563 5.87155L24.6221 6.23284L24.9715 6.28154L25.1821 6.80802L25.7849 6.56518L25.8843 7.26935H25.7027L25.2078 7.1963L24.6589 7.28843L24.1278 8.03866L23.3684 8.15778L23.2585 8.80798L23.579 8.88366L23.4862 9.30155L22.732 9.15019L22.0404 9.30155L21.8936 9.68654L22.0134 10.4947L22.4194 10.6849L23.1005 10.6809L23.5606 10.6395L23.7007 10.2736L24.4194 9.33972L24.8925 9.43646L25.3585 9.01528L25.4453 9.34433L26.5918 10.1176L26.4516 10.3058L25.935 10.2782L26.1337 10.5598L26.4516 10.6296L26.8241 10.4743L26.8162 10.0255L26.9813 9.94254L26.8484 9.80171L26.0837 9.37526L25.8823 8.80864H26.518L26.7214 9.01002L27.2689 9.48187L27.292 10.0524L27.8592 10.6566L28.0705 9.82869L28.4634 9.61415L28.5371 10.2913L28.9208 10.7125L29.6861 10.6994C29.8342 11.0804 29.9671 11.468 30.0836 11.8635L30.004 11.9372ZM8.72703 7.26935L9.11136 7.0864L9.45884 7.16932L9.33906 7.63591L8.96395 7.75502L8.72703 7.26935ZM10.7665 8.36771V8.66978H9.88858L9.55953 8.5783L9.64179 8.36771L10.0636 8.19332H10.6401V8.36771H10.7665ZM11.1706 8.78889V9.08175L10.9507 9.22324L10.677 9.27391C10.677 9.27391 10.677 8.83496 10.677 8.78889H11.1706ZM10.9231 8.66978V8.32165L11.2252 8.59673L10.9231 8.66978ZM11.0606 9.37394V9.6589L10.8507 9.86949H10.3841L10.4572 9.54966L10.6776 9.53057L10.723 9.42067L11.0606 9.37394ZM9.89845 8.78889H10.3835L9.76156 9.65824L9.5049 9.5207L9.56019 9.1548L9.89845 8.78889ZM11.8846 9.27391V9.55821H11.418L11.2903 9.37394V9.10939H11.3272L11.8846 9.27391ZM11.4535 8.883L11.5865 8.74349L11.8109 8.883L11.6312 9.03107L11.4535 8.883ZM30.2422 12.6783L30.2883 12.6243C30.3074 12.7072 30.3278 12.7901 30.3462 12.8744L30.2422 12.6783Z" fill="black"/>
<path d="M2.48877 9.79517V10.2532C2.64869 9.8794 2.82506 9.51482 3.01393 9.15747L2.48877 9.79517Z" fill="black"/>
</svg>
