<svg width="48" height="46" viewBox="0 0 48 46" fill="none" xmlns="http://www.w3.org/2000/svg">
<rect y="-2" width="48" height="48" fill="white"/>
<path d="M34.1436 14.5859V15.6016C31.6569 15.6016 16.8628 15.6016 13.8311 15.6016V14.5859C13.8311 13.4642 14.7405 12.5547 15.8623 12.5547C16.345 12.5547 31.6294 12.5547 32.1123 12.5547C33.2341 12.5547 34.1436 13.4642 34.1436 14.5859Z" fill="#5A5A5A"/>
<path d="M32.1123 15.6016L31.2033 32.5737C31.1434 33.6502 30.2532 34.4922 29.1751 34.4922H18.7995C17.7214 34.4922 16.8312 33.6502 16.7713 32.5737L15.8623 15.6016H32.1123Z" fill="#FFD56B"/>
<path d="M27.0469 31.9531C26.7666 31.9531 26.5391 32.1806 26.5391 32.4609C26.5391 32.7412 26.7666 32.9688 27.0469 32.9688C27.3272 32.9688 27.5547 32.7412 27.5547 32.4609C27.5547 32.1806 27.3272 31.9531 27.0469 31.9531Z" fill="black"/>
<path d="M32.6064 16.1094H34.1562C34.4367 16.1094 34.6641 15.882 34.6641 15.6016V14.5859C34.6641 13.1859 33.525 12.0469 32.125 12.0469H27.5547V10.5234C27.5547 9.68341 26.8713 9 26.0312 9H21.9688C21.1287 9 20.4453 9.68341 20.4453 10.5234V12.0469H15.875C14.475 12.0469 13.3359 13.1859 13.3359 14.5859V15.6016C13.3359 15.882 13.5633 16.1094 13.8438 16.1094H15.3936L16.2769 32.6019C16.3518 33.9466 17.4654 35 18.8122 35H29.1878C30.5346 35 31.6482 33.9466 31.7231 32.6008L32.6064 16.1094ZM21.4609 10.5234C21.4609 10.2434 21.6887 10.0156 21.9688 10.0156H26.0312C26.3113 10.0156 26.5391 10.2434 26.5391 10.5234V12.0469H21.4609V10.5234ZM14.3516 15.0938V14.5859C14.3516 13.7459 15.035 13.0625 15.875 13.0625H32.125C32.965 13.0625 33.6484 13.7459 33.6484 14.5859V15.0938H14.3516ZM30.709 32.5455C30.6641 33.3524 29.9959 33.9844 29.1878 33.9844H18.8122C18.0041 33.9844 17.3359 33.3524 17.2911 32.5466L16.4107 16.1094H31.5893L30.709 32.5455Z" fill="black"/>
<path d="M27.8154 25.8547C27.8878 26.0129 27.8744 26.1889 27.7788 26.3377C27.6838 26.4855 27.5283 26.5703 27.3521 26.5703H23.7026L23.8513 26.4216C24.0496 26.2233 24.0496 25.9018 23.8513 25.7034C23.653 25.5051 23.3315 25.5051 23.1331 25.7034L22.1175 26.719C22.1164 26.7202 22.1154 26.7214 22.1143 26.7226C21.9177 26.9229 21.9235 27.2393 22.1143 27.4337C22.1154 27.4348 22.1164 27.4361 22.1175 27.4372L23.1331 28.4529C23.3314 28.6512 23.653 28.6512 23.8513 28.4529C24.0496 28.2546 24.0496 27.933 23.8513 27.7347L23.7025 27.586H27.352C27.8729 27.586 28.3519 27.3246 28.6332 26.8867C28.9151 26.4478 28.9547 25.9042 28.7391 25.4325C28.6225 25.1774 28.3213 25.0651 28.0661 25.1817C27.8111 25.2983 27.6988 25.5996 27.8154 25.8547Z" fill="black"/>
<path d="M22.8926 19.7873C23.1118 19.9622 23.4314 19.9262 23.6062 19.707C23.7096 19.5774 23.8732 19.5082 24.0438 19.5227C24.2142 19.537 24.3599 19.6315 24.4437 19.7822L26.2878 23.101L25.9895 23.0322C25.7161 22.969 25.4436 23.1395 25.3805 23.4128C25.3174 23.686 25.4878 23.9587 25.7611 24.0217L27.1606 24.3447C27.4567 24.4132 27.7649 24.203 27.7884 23.8826L28.093 22.5647C28.1562 22.2914 27.9858 22.0187 27.7126 21.9556C27.4395 21.8924 27.1666 22.0628 27.1035 22.3361L27.0803 22.4363L25.3315 19.2889C25.0841 18.8437 24.6343 18.5528 24.1281 18.5106C23.6192 18.4682 23.1273 18.6786 22.8123 19.0736C22.6374 19.2929 22.6733 19.6124 22.8926 19.7873Z" fill="black"/>
<path d="M20.3623 27.5465C20.5826 27.5465 20.7856 27.4019 20.8499 27.1796C20.9278 26.9102 20.7725 26.6286 20.5031 26.5507C20.3563 26.5083 20.2376 26.4001 20.1773 26.2538C20.1429 26.1702 20.1006 26.0024 20.2042 25.8161L22.0076 22.5701L22.0657 22.7723C22.1433 23.0428 22.4251 23.1975 22.6938 23.1204C22.9634 23.043 23.1192 22.7617 23.0419 22.4922L22.6475 21.1175C22.5713 20.8432 22.2878 20.6866 22.0178 20.7639L20.6371 21.1594C20.3675 21.2367 20.2115 21.5179 20.2888 21.7875C20.366 22.0572 20.6471 22.2132 20.9168 22.1358L21.1194 22.0778L19.3165 25.3227C19.0897 25.7306 19.0612 26.211 19.2383 26.6408C19.4808 27.2292 20.0549 27.5465 20.3623 27.5465Z" fill="black"/>
<path d="M25.0156 31.9531H20.9531C20.6727 31.9531 20.4453 32.1805 20.4453 32.4609C20.4453 32.7414 20.6727 32.9688 20.9531 32.9688H25.0156C25.2961 32.9688 25.5234 32.7414 25.5234 32.4609C25.5234 32.1805 25.2961 31.9531 25.0156 31.9531Z" fill="black"/>
</svg>
