<svg width="26" height="26" viewBox="0 0 26 26" fill="none" xmlns="http://www.w3.org/2000/svg">
<path d="M23.1436 5.58594V6.60156C20.6569 6.60156 5.86285 6.60156 2.83105 6.60156V5.58594C2.83105 4.46418 3.74055 3.55469 4.8623 3.55469C5.34498 3.55469 20.6294 3.55469 21.1123 3.55469C22.2341 3.55469 23.1436 4.46418 23.1436 5.58594Z" fill="#5A5A5A"/>
<path d="M21.1123 6.60156L20.2033 23.5737C20.1434 24.6502 19.2532 25.4922 18.1751 25.4922H7.79949C6.72141 25.4922 5.83121 24.6502 5.77129 23.5737L4.8623 6.60156H21.1123Z" fill="#FFD56B"/>
<path d="M16.0469 22.9531C15.7666 22.9531 15.5391 23.1806 15.5391 23.4609C15.5391 23.7412 15.7666 23.9688 16.0469 23.9688C16.3272 23.9688 16.5547 23.7412 16.5547 23.4609C16.5547 23.1806 16.3272 22.9531 16.0469 22.9531Z" fill="black"/>
<path d="M21.6064 7.10938H23.1562C23.4367 7.10938 23.6641 6.88203 23.6641 6.60156V5.58594C23.6641 4.1859 22.525 3.04688 21.125 3.04688H16.5547V1.52344C16.5547 0.683414 15.8713 0 15.0312 0H10.9688C10.1287 0 9.44531 0.683414 9.44531 1.52344V3.04688H4.875C3.47496 3.04688 2.33594 4.1859 2.33594 5.58594V6.60156C2.33594 6.88203 2.56329 7.10938 2.84375 7.10938H4.39364L5.27693 23.6019C5.35184 24.9466 6.46542 26 7.81219 26H18.1878C19.5346 26 20.6482 24.9466 20.7231 23.6008L21.6064 7.10938ZM10.4609 1.52344C10.4609 1.24343 10.6887 1.01562 10.9688 1.01562H15.0312C15.3113 1.01562 15.5391 1.24343 15.5391 1.52344V3.04688H10.4609V1.52344ZM3.35156 6.09375V5.58594C3.35156 4.74591 4.03498 4.0625 4.875 4.0625H21.125C21.965 4.0625 22.6484 4.74591 22.6484 5.58594V6.09375H3.35156ZM19.709 23.5455C19.6641 24.3524 18.9959 24.9844 18.1878 24.9844H7.81219C7.00411 24.9844 6.33593 24.3524 6.29109 23.5466L5.41074 7.10938H20.5893L19.709 23.5455Z" fill="black"/>
<path d="M16.8154 16.8547C16.8878 17.0129 16.8744 17.1889 16.7788 17.3377C16.6838 17.4855 16.5283 17.5703 16.3521 17.5703H12.7026L12.8513 17.4216C13.0496 17.2233 13.0496 16.9018 12.8513 16.7034C12.653 16.5051 12.3315 16.5051 12.1331 16.7034L11.1175 17.719C11.1164 17.7202 11.1154 17.7214 11.1143 17.7226C10.9177 17.9229 10.9235 18.2393 11.1143 18.4337C11.1154 18.4348 11.1164 18.4361 11.1175 18.4372L12.1331 19.4529C12.3314 19.6512 12.653 19.6512 12.8513 19.4529C13.0496 19.2546 13.0496 18.933 12.8513 18.7347L12.7025 18.586H16.352C16.8729 18.586 17.3519 18.3246 17.6332 17.8867C17.9151 17.4478 17.9547 16.9042 17.7391 16.4325C17.6225 16.1774 17.3213 16.0651 17.0661 16.1817C16.8111 16.2983 16.6988 16.5996 16.8154 16.8547Z" fill="black"/>
<path d="M11.8927 10.7873C12.112 10.9622 12.4315 10.9262 12.6064 10.707C12.7098 10.5774 12.8733 10.5082 13.0439 10.5227C13.2143 10.537 13.3601 10.6315 13.4438 10.7822L15.2879 14.101L14.9896 14.0322C14.7162 13.969 14.4437 14.1395 14.3806 14.4128C14.3175 14.686 14.488 14.9587 14.7612 15.0217L16.1608 15.3447C16.4569 15.4132 16.765 15.203 16.7886 14.8826L17.0932 13.5647C17.1563 13.2914 16.986 13.0187 16.7127 12.9556C16.4396 12.8924 16.1667 13.0628 16.1036 13.3361L16.0805 13.4363L14.3316 10.2889C14.0843 9.84374 13.6344 9.55276 13.1283 9.51056C12.6193 9.46816 12.1275 9.67865 11.8124 10.0736C11.6375 10.2929 11.6734 10.6124 11.8927 10.7873Z" fill="black"/>
<path d="M9.36226 18.5465C9.5826 18.5465 9.78557 18.4019 9.84986 18.1796C9.92776 17.9102 9.77252 17.6286 9.50308 17.5507C9.35632 17.5083 9.23759 17.4001 9.17732 17.2538C9.14289 17.1702 9.10059 17.0024 9.20418 16.8161L11.0076 13.5701L11.0657 13.7723C11.1433 14.0428 11.4251 14.1975 11.6938 14.1204C11.9634 14.043 12.1192 13.7617 12.0419 13.4922L11.6475 12.1175C11.5713 11.8432 11.2878 11.6866 11.0178 11.7639L9.63709 12.1594C9.36749 12.2367 9.21154 12.5179 9.28878 12.7875C9.36602 13.0572 9.64709 13.2132 9.91684 13.1358L10.1194 13.0778L8.31647 16.3227C8.08968 16.7306 8.0612 17.211 8.23832 17.6408C8.4808 18.2292 9.05493 18.5465 9.36226 18.5465Z" fill="black"/>
<path d="M14.0156 22.9531H9.95312C9.67266 22.9531 9.44531 23.1805 9.44531 23.4609C9.44531 23.7414 9.67266 23.9688 9.95312 23.9688H14.0156C14.2961 23.9688 14.5234 23.7414 14.5234 23.4609C14.5234 23.1805 14.2961 22.9531 14.0156 22.9531Z" fill="black"/>
</svg>
